<?xml version="1.0" encoding="UTF-8" standalone="no"?>
<!-- Created with Inkscape (http://www.inkscape.org/) -->
<svg xmlns:rdf="http://www.w3.org/1999/02/22-rdf-syntax-ns#" xmlns="http://www.w3.org/2000/svg" height="76" width="76" version="1.1" xmlns:cc="http://creativecommons.org/ns#" xmlns:dc="http://purl.org/dc/elements/1.1/">
 <metadata>
  <rdf:RDF>
   <cc:Work rdf:about="">
    <dc:format>image/svg+xml</dc:format>
    <dc:type rdf:resource="http://purl.org/dc/dcmitype/StillImage"/>
    <dc:title/>
   </cc:Work>
  </rdf:RDF>
 </metadata>
 <g transform="translate(0,-976.36218)">
  <path d="M38,5c-18.225,0-33,14.775-33,33s14.775,33,33,33,33-14.775,33-33-14.775-33-33-33zm0,2c17.121,0,31,13.879,31,31s-13.879,31-31,31-31-13.879-31-31,13.879-31,31-31zm0,2c-16.016,0-29,12.984-29,29s12.984,29,29,29,29-12.984,29-29-12.984-29-29-29zm7,15.75h2.5v3.75h3.75v2.5h-3.75v3.75s-2.488,0.013-2.5,0v-3.75h-3.75s0.012-2.488,0-2.5h3.75v-3.75zm-15,3.75h10v3.75h3.75v3.75h3.75v10c0,1.375-1.125,2.5-2.5,2.5h-15c-1.375,0-2.5-1.125-2.5-2.5v-15c0-1.375,1.125-2.5,2.5-2.5zm10,11.25l-3.75,5-2.5-3.75-3.75,5h15l-5-6.25z" fill-rule="evenodd" transform="translate(0,976.36218)" fill="#000"/>
 </g>
</svg>
