<?xml version="1.0" encoding="UTF-8" standalone="no"?>
<!DOCTYPE svg PUBLIC "-//W3C//DTD SVG 1.1//EN" "http://www.w3.org/Graphics/SVG/1.1/DTD/svg11.dtd">
<svg version="1.1" xmlns="http://www.w3.org/2000/svg" xmlns:xlink="http://www.w3.org/1999/xlink" preserveAspectRatio="xMidYMid meet" viewBox="0 0 76 76" width="76" height="76"><path d="M52.55 6.06L53.32 6.14L54.08 6.25L54.82 6.39L55.56 6.55L56.29 6.75L57 6.97L57.7 7.22L58.39 7.49L59.07 7.8L59.73 8.12L60.37 8.47L61 8.85L61.62 9.25L62.22 9.67L62.8 10.11L63.36 10.58L63.9 11.06L64.43 11.57L64.94 12.09L65.42 12.64L65.89 13.2L66.33 13.78L66.75 14.38L67.15 14.99L67.52 15.62L67.87 16.27L68.2 16.93L68.5 17.61L68.78 18.29L69.03 19L69.25 19.71L69.44 20.44L69.61 21.17L69.75 21.92L69.85 22.68L69.93 23.44L69.98 24.22L70 25L70 51L69.98 51.78L69.93 52.56L69.85 53.33L69.75 54.08L69.61 54.83L69.44 55.57L69.25 56.29L69.03 57.01L68.78 57.71L68.5 58.4L68.2 59.07L67.87 59.73L67.52 60.38L67.15 61.01L66.75 61.62L66.33 62.22L65.89 62.8L65.42 63.37L64.94 63.91L64.43 64.44L63.9 64.94L63.36 65.43L62.8 65.89L62.22 66.34L61.62 66.76L61 67.16L60.37 67.53L59.73 67.88L59.07 68.21L58.39 68.51L57.7 68.78L57 69.03L56.29 69.26L55.56 69.45L54.82 69.62L54.08 69.75L53.32 69.86L52.55 69.94L51.78 69.99L51 70L25 70L24.21 69.99L23.44 69.94L22.67 69.86L21.91 69.75L21.17 69.62L20.43 69.45L19.7 69.26L18.99 69.03L18.29 68.78L17.6 68.51L16.92 68.21L16.26 67.88L15.62 67.53L14.99 67.16L14.37 66.76L13.77 66.34L13.19 65.89L12.63 65.43L12.09 64.94L11.56 64.44L11.05 63.91L10.57 63.37L10.1 62.8L9.66 62.22L9.24 61.62L8.84 61.01L8.47 60.38L8.12 59.73L7.79 59.07L7.49 58.4L7.21 57.71L6.96 57.01L6.74 56.29L6.55 55.57L6.38 54.83L6.24 54.08L6.14 53.33L6.06 52.56L6.01 51.78L6 51L6 25L6.01 24.22L6.06 23.44L6.14 22.68L6.24 21.92L6.38 21.17L6.55 20.44L6.74 19.71L6.96 19L7.21 18.29L7.49 17.61L7.79 16.93L8.12 16.27L8.47 15.62L8.84 14.99L9.24 14.38L9.66 13.78L10.1 13.2L10.57 12.64L11.05 12.09L11.56 11.57L12.09 11.06L12.63 10.58L13.19 10.11L13.77 9.67L14.37 9.25L14.99 8.85L15.62 8.47L16.26 8.12L16.92 7.8L17.6 7.49L18.29 7.22L18.99 6.97L19.7 6.75L20.43 6.55L21.17 6.39L21.91 6.25L22.67 6.14L23.44 6.06L24.21 6.02L25 6L51 6L51.78 6.02L52.55 6.06ZM32.82 25.51L32.64 25.53L32.47 25.57L32.3 25.63L32.14 25.69L31.99 25.77L31.85 25.87L31.71 25.97L31.59 26.09L31.47 26.21L31.37 26.35L31.27 26.49L31.19 26.64L31.13 26.8L31.07 26.97L31.03 27.14L31.01 27.32L31 27.5L31 30L27 30L26.91 30L26.82 30.02L26.73 30.04L26.65 30.06L26.57 30.1L26.49 30.14L26.42 30.18L26.36 30.23L26.29 30.29L26.23 30.36L26.18 30.42L26.14 30.49L26.1 30.57L26.06 30.65L26.04 30.73L26.02 30.82L26 30.91L26 31L26 32L26 32.02L26 32.04L26.01 32.07L26.02 32.09L26.02 32.11L26.03 32.13L26.05 32.14L26.06 32.16L26.07 32.18L26.09 32.19L26.11 32.2L26.12 32.22L26.14 32.23L26.16 32.23L26.18 32.24L26.21 32.25L26.23 32.25L26.25 32.25L28.14 32.25L28.91 48.59L28.93 48.77L28.96 48.94L29 49.1L29.06 49.26L29.13 49.42L29.21 49.56L29.31 49.7L29.41 49.83L29.53 49.95L29.65 50.06L29.78 50.15L29.93 50.24L30.07 50.32L30.23 50.38L30.39 50.43L30.56 50.47L30.73 50.49L30.91 50.5L45.09 50.5L45.27 50.49L45.44 50.47L45.61 50.43L45.77 50.38L45.93 50.32L46.08 50.24L46.22 50.16L46.35 50.06L46.47 49.95L46.59 49.83L46.69 49.7L46.79 49.56L46.87 49.42L46.94 49.27L47 49.11L47.04 48.94L47.07 48.77L47.09 48.59L47.86 32.25L49.75 32.25L49.77 32.25L49.79 32.25L49.82 32.24L49.84 32.23L49.86 32.23L49.88 32.22L49.89 32.2L49.91 32.19L49.93 32.18L49.94 32.16L49.95 32.14L49.97 32.13L49.98 32.11L49.98 32.09L49.99 32.07L50 32.04L50 32.02L50 32L50 31L50 30.91L49.98 30.82L49.96 30.73L49.94 30.65L49.9 30.57L49.86 30.49L49.82 30.42L49.77 30.36L49.71 30.29L49.64 30.23L49.58 30.18L49.51 30.14L49.43 30.1L49.35 30.06L49.27 30.04L49.18 30.02L49.09 30L49 30L45 30L45 27.5L44.99 27.32L44.97 27.14L44.93 26.97L44.87 26.8L44.81 26.64L44.73 26.49L44.63 26.35L44.53 26.21L44.41 26.09L44.29 25.97L44.15 25.87L44.01 25.77L43.86 25.69L43.7 25.63L43.53 25.57L43.36 25.53L43.18 25.51L43 25.5L33 25.5L32.82 25.51ZM33.25 30L33.25 27.75L42.75 27.75L42.75 30L33.25 30Z" id="g1rjY9r06h"></path></svg>