<?xml version="1.0" encoding="UTF-8" standalone="no"?>
<!-- Created with Inkscape (http://www.inkscape.org/) -->
<svg xmlns:rdf="http://www.w3.org/1999/02/22-rdf-syntax-ns#" xmlns="http://www.w3.org/2000/svg" height="76" width="76" version="1.1" xmlns:cc="http://creativecommons.org/ns#" xmlns:dc="http://purl.org/dc/elements/1.1/">
 <metadata>
  <rdf:RDF>
   <cc:Work rdf:about="">
    <dc:format>image/svg+xml</dc:format>
    <dc:type rdf:resource="http://purl.org/dc/dcmitype/StillImage"/>
    <dc:title/>
   </cc:Work>
  </rdf:RDF>
 </metadata>
 <g transform="translate(0,-976.36218)">
  <path d="M38,5c-18.225,0-33,14.775-33,33s14.775,33,33,33,33-14.775,33-33-14.775-33-33-33zm0,2c17.121,0,31,13.879,31,31s-13.879,31-31,31-31-13.879-31-31,13.879-31,31-31zm0,2c-16.016,0-29,12.984-29,29s12.984,29,29,29,29-12.984,29-29-12.984-29-29-29zm0,16.5c2.075,0,3.75,1.675,3.75,3.75v7.5c0,2.075-1.675,3.75-3.75,3.75s-3.75-1.675-3.75-3.75v-7.5c0-2.075,1.675-3.75,3.75-3.75zm-8.75,11.25h2.125c0,3.75,3.175,6.375,6.625,6.375s6.625-2.625,6.625-6.375h2.125c0,4.275-3.4,7.806-7.5,8.406v4.094h-2.5v-4.094c-4.1-0.612-7.5-4.144-7.5-8.406z" fill-rule="evenodd" transform="translate(0,976.36218)" fill="#000"/>
 </g>
</svg>
