<?xml version="1.0" encoding="UTF-8" standalone="no"?>
<!-- Created with Inkscape (http://www.inkscape.org/) -->
<svg xmlns:rdf="http://www.w3.org/1999/02/22-rdf-syntax-ns#" xmlns="http://www.w3.org/2000/svg" height="76" width="76" version="1.1" xmlns:cc="http://creativecommons.org/ns#" xmlns:dc="http://purl.org/dc/elements/1.1/">
 <metadata>
  <rdf:RDF>
   <cc:Work rdf:about="">
    <dc:format>image/svg+xml</dc:format>
    <dc:type rdf:resource="http://purl.org/dc/dcmitype/StillImage"/>
    <dc:title/>
   </cc:Work>
  </rdf:RDF>
 </metadata>
 <g transform="translate(0,-976.36218)">
  <path d="M38,5c-18.225,0-33,14.775-33,33s14.775,33,33,33,33-14.775,33-33-14.775-33-33-33zm0,2c17.121,0,31,13.879,31,31s-13.879,31-31,31-31-13.879-31-31,13.879-31,31-31zm0,2c-16.016,0-29,12.984-29,29s12.984,29,29,29,29-12.984,29-29-12.984-29-29-29zm0,17.125c2.075,0,3.75,1.675,3.75,3.75v7.5c0,0.075-0.031,0.144-0.031,0.219l-7.469-7.5v-0.219c0-2.075,1.675-3.75,3.75-3.75zm-9.656,1.25l20.906,20.906-1.594,1.594-5.218-5.219c-0.963,0.563-2.05,0.963-3.188,1.125v4.094h-2.5v-4.094c-4.1-0.612-7.5-4.143-7.5-8.406h2.125c0,3.75,3.175,6.375,6.625,6.375,1.012,0,1.988-0.244,2.875-0.656l-2.063-2.063c-0.262,0.062-0.537,0.094-0.812,0.094-2.075,0-3.75-1.675-3.75-3.75v-0.906l-7.5-7.5,1.594-1.594zm16.281,10h2.125c0,1.487-0.425,2.869-1.125,4.094l-1.531-1.531c0.337-0.776,0.531-1.638,0.531-2.563z" fill-rule="evenodd" transform="translate(0,976.36218)" fill="#000"/>
 </g>
</svg>
