<svg width="60" height="60" xmlns="http://www.w3.org/2000/svg">
 <g>
  <path d="m29.997859,35.028821c3.339141,0 6.034592,-2.69545 6.034592,-6.034585l0,-12.069184c0,-3.339141 -2.69545,-6.034592 -6.034592,-6.034592s-6.034592,2.69545 -6.034592,6.034592l0,12.069184c0,3.339135 2.69545,6.034585 6.034592,6.034585zm11.888148,-6.034585c-0.985653,0 -1.81038,0.724151 -1.9713,1.709797c-0.824727,4.727093 -4.948369,8.347854 -9.916848,8.347854s-9.092114,-3.62076 -9.916841,-8.347854c-0.160926,-0.985646 -0.985653,-1.709797 -1.9713,-1.709797c-1.227032,0 -2.192569,1.086223 -2.011533,2.293138c0.985653,6.034592 5.813323,10.761692 11.888148,11.626645l0,4.183985c0,1.106339 0.905187,2.011533 2.011526,2.011533s2.011533,-0.905193 2.011533,-2.011533l0,-4.183985c6.074818,-0.864954 10.902494,-5.592053 11.888141,-11.626645c0.201153,-1.206916 -0.784494,-2.293145 -2.011526,-2.293145l0,0.000007z"/>
 </g>
</svg>